<svg xmlns="http://www.w3.org/2000/svg" viewBox="0 0 462.159 101.13"><path d="M63.07 56.11v39.47c0 .916-.457 1.378-1.378 1.378h-5.584c-.918 0-1.376-.462-1.376-1.378V56.11c0-.915.458-1.376 1.376-1.376h5.584c.92 0 1.38.46 1.38 1.377zM89.078 96.958h-6.963c-3.46 0-6.133-.927-8.014-2.755-1.88-1.847-2.82-4.492-2.82-7.948V65.433c0-3.456.94-6.098 2.82-7.945 1.882-1.832 4.555-2.754 8.015-2.754h6.963c3.41 0 6.06.927 7.94 2.79 1.884 1.858 2.827 4.497 2.827 7.91v1.973c0 .96-.463 1.446-1.38 1.446h-5.582c-.92 0-1.38-.487-1.38-1.446v-1.574c0-1.403-.284-2.398-.853-2.987s-1.557-.894-2.957-.894h-4.267c-1.36 0-2.33.305-2.926.894-.59.59-.88 1.584-.88 2.987v20.03c0 1.395.29 2.39.88 2.982.596.59 1.566.89 2.926.89h4.267c1.4 0 2.388-.3 2.957-.89.57-.592.854-1.588.854-2.983v-4.14c0-.483-.242-.724-.72-.724H86.84c-.918 0-1.38-.46-1.38-1.377v-4.466c0-.923.462-1.374 1.38-1.374h11.492c1.007 0 1.512.505 1.512 1.505v10.97c0 3.415-.943 6.054-2.826 7.907-1.883 1.865-4.53 2.796-7.942 2.796zM120.79 96.958h-5.516c-.963 0-1.446-.462-1.446-1.378V62.682c0-.483-.242-.73-.72-.73h-7.488c-.918 0-1.377-.455-1.377-1.374v-4.466c0-.916.46-1.377 1.377-1.377h24.823c.92 0 1.38.46 1.38 1.377v4.466c0 .92-.46 1.374-1.38 1.374h-7.487c-.52 0-.787.247-.787.73V95.58c0 .916-.46 1.378-1.38 1.378z"/><g fill="#939598"><path d="M162.076 96.958h-8.537c-2.67 0-4.804-.814-6.403-2.428-1.597-1.617-2.397-3.79-2.397-6.502V63.663c0-2.715.8-4.884 2.397-6.498 1.6-1.617 3.732-2.43 6.402-2.43h8.536c2.67 0 4.805.813 6.404 2.43 1.597 1.614 2.395 3.783 2.395 6.498v3.286c0 .392-.174.588-.52.588h-.926c-.348 0-.522-.196-.522-.59v-3.215c0-2.235-.593-3.983-1.774-5.252-1.183-1.27-2.87-1.907-5.057-1.907h-8.537c-2.188 0-3.874.636-5.055 1.908-1.18 1.27-1.774 3.018-1.774 5.253V87.96c0 2.23.594 3.987 1.775 5.26 1.18 1.264 2.867 1.896 5.055 1.896h8.537c2.188 0 3.875-.633 5.057-1.897 1.18-1.272 1.774-3.028 1.774-5.26v-3.217c0-.392.174-.588.52-.588h.926c.347 0 .52.196.52.588v3.286c0 2.71-.797 4.884-2.394 6.5-1.6 1.614-3.734 2.428-6.404 2.428zM197.404 96.958h-8.207c-2.673 0-4.805-.814-6.402-2.428-1.598-1.617-2.4-3.79-2.4-6.502V63.663c0-2.715.802-4.884 2.4-6.498 1.597-1.617 3.73-2.43 6.402-2.43h8.207c2.67 0 4.806.813 6.403 2.43 1.598 1.614 2.4 3.783 2.4 6.498v24.365c0 2.71-.802 4.885-2.4 6.502-1.597 1.614-3.732 2.428-6.403 2.428zm-8.206-1.843h8.207c2.19 0 3.874-.633 5.055-1.897 1.183-1.27 1.773-3.027 1.773-5.26V63.733c0-2.235-.59-3.983-1.773-5.252-1.18-1.272-2.866-1.908-5.055-1.908h-8.207c-2.19 0-3.873.636-5.056 1.908-1.183 1.27-1.773 3.017-1.773 5.252V87.96c0 2.23.59 3.986 1.772 5.258 1.183 1.264 2.866 1.897 5.056 1.897zM218.813 96.958h-.92c-.352 0-.524-.2-.524-.593v-41.04c0-.395.172-.59.522-.59h.92c.217 0 .372.086.46.264l21.998 37.226h.262v-36.9c0-.396.175-.592.527-.592h.915c.35 0 .527.196.527.592v41.04c0 .392-.18.592-.527.592h-.654c-.308 0-.57-.175-.788-.523l-21.932-37.1h-.262v37.03c0 .393-.18.593-.525.593zM255.324 88.028V85.4c0-.393.17-.59.52-.59h.92c.35 0 .526.197.526.59v2.56c0 2.23.59 3.986 1.77 5.258 1.182 1.265 2.868 1.897 5.06 1.897H272c2.188 0 3.874-.633 5.055-1.897 1.185-1.27 1.777-3.027 1.777-5.26v-3.284c0-2.05-.813-3.69-2.435-4.89-1.617-1.202-3.576-2.074-5.877-2.623-2.293-.555-4.594-1.093-6.895-1.65-2.297-.537-4.256-1.45-5.877-2.72-1.62-1.27-2.424-2.996-2.424-5.187v-3.94c0-2.715.792-4.884 2.392-6.498 1.595-1.617 3.732-2.43 6.403-2.43H272c2.666 0 4.803.813 6.398 2.43 1.6 1.614 2.398 3.783 2.398 6.498v1.966c0 .403-.178.595-.526.595h-.92c-.35 0-.52-.192-.52-.596V63.73c0-2.235-.593-3.983-1.777-5.252-1.18-1.272-2.867-1.908-5.055-1.908h-7.88c-2.19 0-3.878.636-5.06 1.908-1.18 1.27-1.77 3.017-1.77 5.252v3.805c0 3.238 2.755 5.473 8.272 6.694 2.322.492 4.634 1.022 6.93 1.615 2.294.59 4.253 1.6 5.874 3.02 1.62 1.418 2.43 3.322 2.43 5.682v3.48c0 2.712-.798 4.886-2.397 6.503-1.596 1.613-3.732 2.428-6.4 2.428h-7.88c-2.67 0-4.808-.814-6.402-2.428-1.6-1.617-2.39-3.79-2.39-6.502zM315.796 54.734h.924c.35 0 .523.17.523.53v32.764c0 2.71-.8 4.885-2.396 6.502-1.603 1.613-3.732 2.428-6.407 2.428h-7.356c-2.664 0-4.797-.814-6.396-2.428-1.6-1.617-2.398-3.79-2.398-6.502V55.326c0-.396.175-.592.53-.592h.913c.353 0 .526.196.526.592V87.96c0 2.23.588 3.986 1.772 5.258 1.182 1.265 2.864 1.897 5.052 1.897h7.356c2.19 0 3.874-.633 5.063-1.897 1.178-1.27 1.767-3.027 1.767-5.26V55.327c0-.396.177-.592.526-.592zM349.94 96.958h-20.683c-.353 0-.526-.2-.526-.593v-41.04c0-.395.175-.59.527-.59h.924c.35 0 .52.195.52.59v39.136c0 .35.197.528.593.528h18.648c.394 0 .593.17.593.523v.924c0 .35-.2.524-.592.524zM366.558 96.958h-.923c-.35 0-.52-.2-.52-.593v-39.27c0-.34-.197-.522-.592-.522h-10.11c-.397 0-.597-.178-.597-.523v-.785c0-.36.2-.53.596-.53h23.377c.392 0 .59.17.59.53v.785c0 .345-.198.523-.59.523h-10.117c-.393 0-.59.182-.59.523v39.27c-.002.392-.177.592-.525.592zM387.896 55.326v41.04c0 .392-.174.592-.52.592h-.926c-.353 0-.523-.2-.523-.593v-41.04c0-.395.17-.59.523-.59h.925c.348 0 .52.195.52.59zM401.487 96.958h-.92c-.35 0-.522-.2-.522-.593v-41.04c0-.395.174-.59.52-.59h.922c.218 0 .37.086.458.264l22 37.226h.26v-36.9c0-.396.177-.592.53-.592h.917c.35 0 .527.196.527.592v41.04c0 .392-.178.592-.528.592h-.658c-.307 0-.568-.175-.788-.523l-21.928-37.1h-.264v37.03c0 .393-.178.593-.527.593zM453.362 96.958h-7.22c-2.677 0-4.81-.814-6.41-2.428-1.594-1.617-2.394-3.79-2.394-6.502V63.663c0-2.715.8-4.884 2.393-6.498 1.603-1.617 3.735-2.43 6.412-2.43h7.22c2.672 0 4.802.813 6.4 2.43 1.598 1.614 2.396 3.783 2.396 6.498v3.286c0 .392-.172.588-.522.588h-.922c-.353 0-.525-.196-.525-.59v-3.215c0-2.235-.59-3.983-1.77-5.252-1.186-1.27-2.87-1.907-5.06-1.907h-7.22c-2.194 0-3.877.636-5.058 1.908-1.187 1.27-1.775 3.018-1.775 5.253V87.96c0 2.23.59 3.987 1.775 5.26 1.18 1.264 2.863 1.896 5.06 1.896h7.22c2.187 0 3.872-.633 5.057-1.897 1.18-1.272 1.77-3.028 1.77-5.26v-9.914c0-.346-.197-.527-.59-.527h-8.474c-.392 0-.59-.172-.59-.524v-.79c0-.344.198-.526.59-.526h9.852c.79 0 1.18.418 1.18 1.25v11.1c0 2.71-.798 4.885-2.395 6.502-1.6 1.612-3.73 2.426-6.4 2.426z"/></g><g><g fill="#454EA1"><path d="M54.73 45.2c0 .66.535 1.193 1.195 1.193H80.5c2.3 0 4.168-1.864 4.168-4.168 0-2.3-1.868-4.168-4.168-4.168h-11.53l7.298-7.298c1.628-1.633 1.628-4.272 0-5.896-1.626-1.628-4.267-1.632-5.896 0l-7.298 7.298v-11.53-.003c0-2.305-1.868-4.17-4.17-4.17-2.3 0-4.17 1.865-4.17 4.17V45.2zM82.218 14.737c-2.3 0-4.167 1.868-4.167 4.17 0 2.3 1.867 4.167 4.168 4.167 2.304 0 4.17-1.868 4.17-4.168s-1.866-4.17-4.17-4.17zM91.004 6.728c-1.875 0-3.396 1.52-3.396 3.395 0 1.872 1.52 3.394 3.396 3.394s3.396-1.522 3.396-3.394c0-1.876-1.52-3.395-3.396-3.395z"/><circle cx="98.653" cy="2.471" r="2.471"/></g><g fill="#369846"><path d="M45.2 46.393c.66 0 1.195-.534 1.195-1.192V20.63c0-2.305-1.866-4.17-4.17-4.17-2.303 0-4.17 1.865-4.17 4.17v11.53l-7.297-7.297v-.003c-1.63-1.628-4.27-1.628-5.898 0-1.625 1.628-1.626 4.267 0 5.898l7.3 7.298H20.628c-2.304 0-4.168 1.868-4.168 4.168 0 2.304 1.864 4.168 4.168 4.168H45.2zM14.735 18.906c0 2.304 1.87 4.168 4.17 4.168s4.17-1.864 4.17-4.168-1.87-4.17-4.17-4.17-4.17 1.866-4.17 4.17z"/><circle cx="10.12" cy="10.122" r="3.395"/><path d="M0 2.472c0 1.366 1.106 2.47 2.47 2.47 1.362 0 2.472-1.104 2.472-2.47C4.942 1.108 3.832 0 2.472 0 1.105 0 0 1.108 0 2.472z"/></g><g fill="#922A8E"><path d="M46.395 55.93c0-.662-.536-1.196-1.196-1.196H20.627c-2.302 0-4.168 1.864-4.168 4.168s1.866 4.168 4.168 4.168h11.53l-7.3 7.298c-1.628 1.632-1.626 4.27 0 5.9 1.628 1.627 4.27 1.627 5.895 0l7.3-7.3V80.5c0 2.3 1.868 4.17 4.17 4.17 2.305 0 4.17-1.87 4.17-4.17V55.93z"/><circle cx="18.906" cy="82.222" r="4.17"/><circle cx="10.12" cy="91.008" r="3.394"/><path d="M2.473 101.13c1.363 0 2.47-1.108 2.47-2.472 0-1.362-1.107-2.47-2.47-2.47-1.367 0-2.473 1.108-2.473 2.47 0 1.363 1.106 2.472 2.473 2.472z"/></g></g></svg>